<?xml version="1.0" encoding="UTF-8"?>
<!DOCTYPE svg PUBLIC "-//W3C//DTD SVG 1.1//EN" "http://www.w3.org/Graphics/SVG/1.1/DTD/svg11.dtd">
<svg xmlns="http://www.w3.org/2000/svg" version="1.1" width="3334px" height="2500px" style="shape-rendering:geometricPrecision; text-rendering:geometricPrecision; image-rendering:optimizeQuality; fill-rule:evenodd; clip-rule:evenodd" xmlns:xlink="http://www.w3.org/1999/xlink">
<g><path style="opacity:0.969" fill="#000000" d="M 963.5,398.5 C 1212.17,398.333 1460.83,398.5 1709.5,399C 1797.96,473.124 1886.13,547.624 1974,622.5C 1974.5,708.833 1974.67,795.166 1974.5,881.5C 1906.83,881.5 1839.17,881.5 1771.5,881.5C 1771.67,817.499 1771.5,753.499 1771,689.5C 1725.17,650.333 1679.33,611.167 1633.5,572C 1523.5,571.5 1413.5,571.333 1303.5,571.5C 1303.5,838.5 1303.5,1105.5 1303.5,1372.5C 1411.17,1372.67 1518.83,1372.5 1626.5,1372C 1674.39,1331.14 1722.56,1290.64 1771,1250.5C 1771.5,1200.17 1771.67,1149.83 1771.5,1099.5C 1839.17,1099.5 1906.83,1099.5 1974.5,1099.5C 1974.67,1170.5 1974.5,1241.5 1974,1312.5C 1882.59,1390.45 1791.09,1468.29 1699.5,1546C 1454.17,1546.5 1208.83,1546.67 963.5,1546.5C 963.5,1488.83 963.5,1431.17 963.5,1373.5C 1009.17,1373.5 1054.83,1373.5 1100.5,1373.5C 1100.5,1106.17 1100.5,838.833 1100.5,571.5C 1054.83,571.5 1009.17,571.5 963.5,571.5C 963.5,513.833 963.5,456.167 963.5,398.5 Z"/></g>
<g><path style="opacity:1" fill="#7d6504" d="M 1703.5,411.5 C 1461.17,411.5 1218.83,411.5 976.5,411.5C 976.5,460.5 976.5,509.5 976.5,558.5C 975.501,509.336 975.168,460.003 975.5,410.5C 1218.33,410.167 1461,410.5 1703.5,411.5 Z"/></g>
<g><path style="opacity:1" fill="#fbcb07" d="M 1703.5,411.5 C 1789.46,483.623 1875.29,555.956 1961,628.5C 1961.5,708.833 1961.67,789.166 1961.5,869.5C 1902.5,869.5 1843.5,869.5 1784.5,869.5C 1784.67,807.499 1784.5,745.499 1784,683.5C 1735.41,642.118 1686.91,600.618 1638.5,559C 1522.5,558.5 1406.5,558.333 1290.5,558.5C 1290.5,834.167 1290.5,1109.83 1290.5,1385.5C 1404.17,1385.67 1517.83,1385.5 1631.5,1385C 1682.33,1342.17 1733.17,1299.33 1784,1256.5C 1784.5,1208.17 1784.67,1159.83 1784.5,1111.5C 1843.5,1111.5 1902.5,1111.5 1961.5,1111.5C 1961.67,1176.5 1961.5,1241.5 1961,1306.5C 1872.17,1382 1783.33,1457.5 1694.5,1533C 1455.17,1533.5 1215.83,1533.67 976.5,1533.5C 976.5,1484.5 976.5,1435.5 976.5,1386.5C 1022.17,1386.5 1067.83,1386.5 1113.5,1386.5C 1113.83,1110.33 1113.5,834.333 1112.5,558.5C 1067.17,558.5 1021.83,558.5 976.5,558.5C 976.5,509.5 976.5,460.5 976.5,411.5C 1218.83,411.5 1461.17,411.5 1703.5,411.5 Z"/></g>
<g><path style="opacity:0.959" fill="#010100" d="M 1637.5,903.5 C 1794.5,903.333 1951.5,903.5 2108.5,904C 2179.72,964.856 2251.22,1025.36 2323,1085.5C 2323.67,1344.5 2323.67,1603.5 2323,1862.5C 2248.26,1925.79 2173.43,1988.95 2098.5,2052C 1948.17,2052.67 1797.83,2052.67 1647.5,2052C 1572.37,1989.21 1497.54,1926.04 1423,1862.5C 1422.5,1764.5 1422.33,1666.5 1422.5,1568.5C 1490.17,1568.5 1557.83,1568.5 1625.5,1568.5C 1625.33,1643.17 1625.5,1717.83 1626,1792.5C 1659.83,1821 1693.67,1849.5 1727.5,1878C 1824.5,1878.67 1921.5,1878.67 2018.5,1878C 2052.33,1849.5 2086.17,1821 2120,1792.5C 2120.67,1580.83 2120.67,1369.17 2120,1157.5C 2088.83,1131 2057.67,1104.5 2026.5,1078C 1924.17,1077.33 1821.83,1077.33 1719.5,1078C 1688.33,1104.5 1657.17,1131 1626,1157.5C 1625.83,1219.07 1625.33,1280.57 1624.5,1342C 1621.17,1344.67 1617.83,1347.33 1614.5,1350C 1550.5,1350.5 1486.5,1350.67 1422.5,1350.5C 1422.33,1262.17 1422.5,1173.83 1423,1085.5C 1494.66,1024.93 1566.16,964.267 1637.5,903.5 Z"/></g>
<g><path style="opacity:1" fill="#fbcb07" d="M 1642.5,916.5 C 1796.17,916.333 1949.83,916.5 2103.5,917C 2172.33,975.167 2241.17,1033.33 2310,1091.5C 2310.67,1346.5 2310.67,1601.5 2310,1856.5C 2237.83,1917.33 2165.67,1978.17 2093.5,2039C 1946.17,2039.67 1798.83,2039.67 1651.5,2039C 1579.96,1977.79 1508.13,1916.96 1436,1856.5C 1435.5,1764.83 1435.33,1673.17 1435.5,1581.5C 1494.5,1581.5 1553.5,1581.5 1612.5,1581.5C 1612.33,1653.83 1612.5,1726.17 1613,1798.5C 1649.22,1829.69 1685.72,1860.52 1722.5,1891C 1822.83,1891.67 1923.17,1891.67 2023.5,1891C 2059.39,1860.14 2095.56,1829.64 2132,1799.5C 2132.67,1583.17 2132.67,1366.83 2132,1150.5C 2098.17,1122 2064.33,1093.5 2030.5,1065C 1925.17,1064.33 1819.83,1064.33 1714.5,1065C 1680.83,1093.5 1647.17,1122 1613.5,1150.5C 1612.83,1212.17 1612.17,1273.83 1611.5,1335.5C 1610.35,1336.14 1609.35,1336.98 1608.5,1338C 1550.83,1338.5 1493.17,1338.67 1435.5,1338.5C 1435.33,1256.17 1435.5,1173.83 1436,1091.5C 1505.02,1033.3 1573.86,974.969 1642.5,916.5 Z"/></g>
<g><path style="opacity:1" fill="#614e04" d="M 1112.5,558.5 C 1113.5,834.333 1113.83,1110.33 1113.5,1386.5C 1067.83,1386.5 1022.17,1386.5 976.5,1386.5C 976.5,1435.5 976.5,1484.5 976.5,1533.5C 975.501,1484.34 975.168,1435 975.5,1385.5C 1021.17,1385.5 1066.83,1385.5 1112.5,1385.5C 1112.5,1109.83 1112.5,834.167 1112.5,558.5 Z"/></g>
</svg>
